<svg width="1123" height="900" viewBox="0 0 1123 900" fill="none" xmlns="http://www.w3.org/2000/svg">
<path fill-rule="evenodd" clip-rule="evenodd" d="M561.694 318.101L561.694 0L434.25 220.399L306.192 0H173L414.719 446.506L561.694 318.101ZM561.694 401.035L444.997 502.437L561.694 718L561.694 401.035Z" fill="#104C91"/>
<path fill-rule="evenodd" clip-rule="evenodd" d="M705.161 460.073L960.521 0H817.502L690.058 220.399L562 0V319.77L705.161 460.073ZM675.539 513.441L562 402.695V718L675.539 513.441Z" fill="#1F8AC0"/>
<path d="M39.1172 786.67L45.3379 753.789H54.8276L44.5762 800H34.9912L27.4692 769.087L19.9473 800H10.3623L0.11084 753.789H9.60059L15.853 786.606L23.4702 753.789H31.5317L39.1172 786.67ZM71.4255 800H61.904V753.789H71.4255V800ZM81.5805 800V753.789H95.7992C99.8617 753.789 103.49 754.709 106.685 756.55C109.902 758.37 112.409 760.972 114.207 764.358C116.006 767.722 116.905 771.552 116.905 775.847V777.974C116.905 782.269 116.017 786.088 114.239 789.431C112.483 792.774 109.997 795.366 106.781 797.207C103.565 799.048 99.9358 799.979 95.8944 800H81.5805ZM91.102 761.501V792.351H95.704C99.428 792.351 102.274 791.134 104.242 788.701C106.209 786.268 107.214 782.787 107.257 778.259V775.815C107.257 771.118 106.283 767.563 104.337 765.151C102.39 762.718 99.5443 761.501 95.7992 761.501H91.102ZM152.959 779.973H134.677V792.351H156.132V800H125.156V753.789H156.069V761.501H134.677V772.515H152.959V779.973ZM199.01 786.67L205.23 753.789H214.72L204.469 800H194.884L187.362 769.087L179.84 800H170.255L160.003 753.789H169.493L175.745 786.606L183.363 753.789H191.424L199.01 786.67ZM245.886 790.479H229.191L226.018 800H215.893L233.095 753.789H241.918L259.216 800H249.091L245.886 790.479ZM231.762 782.766H243.315L237.507 765.469L231.762 782.766ZM276.004 774.609L285.621 753.789H296.031L280.86 783.242V800H271.18V783.242L256.009 753.789H266.451L276.004 774.609ZM346.841 779.973H328.56V792.351H350.015V800H319.039V753.789H349.952V761.501H328.56V772.515H346.841V779.973ZM394.479 800H384.958L366.423 769.595V800H356.901V753.789H366.423L384.99 784.258V753.789H394.479V800ZM440.657 794.16C438.943 796.213 436.521 797.81 433.389 798.953C430.258 800.074 426.788 800.635 422.979 800.635C418.98 800.635 415.468 799.767 412.442 798.032C409.437 796.276 407.11 793.737 405.459 790.415C403.83 787.093 402.994 783.189 402.952 778.704V775.562C402.952 770.949 403.724 766.96 405.269 763.596C406.835 760.211 409.078 757.629 411.998 755.852C414.939 754.054 418.377 753.154 422.312 753.154C427.793 753.154 432.077 754.466 435.167 757.09C438.256 759.692 440.086 763.49 440.657 768.484H431.39C430.966 765.839 430.025 763.903 428.565 762.676C427.126 761.449 425.137 760.835 422.598 760.835C419.361 760.835 416.896 762.052 415.203 764.485C413.51 766.918 412.653 770.536 412.632 775.339V778.291C412.632 783.136 413.553 786.797 415.394 789.272C417.234 791.748 419.932 792.986 423.487 792.986C427.063 792.986 429.612 792.224 431.136 790.701V782.734H422.471V775.72H440.657V794.16ZM459.826 800H450.304V753.789H459.826V800ZM507.559 800H498.038L479.502 769.595V800H469.981V753.789H479.502L498.069 784.258V753.789H507.559V800ZM544.977 779.973H526.696V792.351H548.151V800H517.174V753.789H548.088V761.501H526.696V772.515H544.977V779.973ZM582.84 779.973H564.558V792.351H586.013V800H555.037V753.789H585.95V761.501H564.558V772.515H582.84V779.973ZM610.006 783.083H602.421V800H592.899V753.789H610.07C615.529 753.789 619.739 755.006 622.702 757.439C625.664 759.872 627.145 763.311 627.145 767.754C627.145 770.907 626.457 773.541 625.082 775.657C623.728 777.751 621.665 779.423 618.893 780.671L628.891 799.556V800H618.671L610.006 783.083ZM602.421 775.371H610.102C612.493 775.371 614.344 774.768 615.656 773.562C616.968 772.335 617.624 770.653 617.624 768.516C617.624 766.336 616.999 764.622 615.751 763.374C614.524 762.126 612.63 761.501 610.07 761.501H602.421V775.371ZM645.838 800H636.316V753.789H645.838V800ZM693.571 800H684.049L665.514 769.595V800H655.993V753.789H665.514L684.081 784.258V753.789H693.571V800ZM739.749 794.16C738.035 796.213 735.612 797.81 732.481 798.953C729.349 800.074 725.879 800.635 722.07 800.635C718.071 800.635 714.559 799.767 711.533 798.032C708.529 796.276 706.201 793.737 704.551 790.415C702.922 787.093 702.086 783.189 702.044 778.704V775.562C702.044 770.949 702.816 766.96 704.36 763.596C705.926 760.211 708.169 757.629 711.089 755.852C714.03 754.054 717.468 753.154 721.404 753.154C726.884 753.154 731.169 754.466 734.258 757.09C737.347 759.692 739.177 763.49 739.749 768.484H730.481C730.058 765.839 729.116 763.903 727.656 762.676C726.218 761.449 724.229 760.835 721.69 760.835C718.452 760.835 715.987 762.052 714.295 764.485C712.602 766.918 711.745 770.536 711.724 775.339V778.291C711.724 783.136 712.644 786.797 714.485 789.272C716.326 791.748 719.024 792.986 722.578 792.986C726.154 792.986 728.704 792.224 730.227 790.701V782.734H721.563V775.72H739.749V794.16ZM790.242 787.876C790.242 786.077 789.607 784.702 788.337 783.75C787.068 782.777 784.783 781.761 781.482 780.703C778.181 779.624 775.568 778.566 773.643 777.529C768.395 774.694 765.771 770.875 765.771 766.072C765.771 763.575 766.47 761.353 767.866 759.407C769.284 757.439 771.305 755.905 773.928 754.805C776.573 753.704 779.535 753.154 782.815 753.154C786.116 753.154 789.057 753.757 791.638 754.963C794.22 756.148 796.219 757.83 797.637 760.01C799.076 762.189 799.795 764.665 799.795 767.437H790.273C790.273 765.321 789.607 763.681 788.274 762.517C786.941 761.332 785.068 760.74 782.656 760.74C780.329 760.74 778.52 761.237 777.229 762.231C775.938 763.205 775.293 764.495 775.293 766.104C775.293 767.606 776.044 768.865 777.546 769.88C779.07 770.896 781.302 771.848 784.243 772.737C789.66 774.366 793.606 776.387 796.082 778.799C798.557 781.211 799.795 784.215 799.795 787.812C799.795 791.812 798.282 794.954 795.256 797.239C792.231 799.503 788.158 800.635 783.037 800.635C779.482 800.635 776.245 799.989 773.325 798.699C770.405 797.387 768.173 795.599 766.628 793.335C765.105 791.071 764.343 788.447 764.343 785.464H773.896C773.896 790.563 776.943 793.113 783.037 793.113C785.301 793.113 787.068 792.658 788.337 791.748C789.607 790.817 790.242 789.526 790.242 787.876ZM845.529 777.942C845.529 782.491 844.724 786.479 843.116 789.907C841.508 793.335 839.202 795.98 836.197 797.842C833.214 799.704 829.786 800.635 825.914 800.635C822.084 800.635 818.667 799.714 815.663 797.874C812.658 796.033 810.331 793.409 808.68 790.002C807.03 786.575 806.194 782.639 806.173 778.196V775.911C806.173 771.361 806.988 767.362 808.617 763.914C810.267 760.444 812.584 757.788 815.568 755.947C818.572 754.085 822 753.154 825.851 753.154C829.702 753.154 833.119 754.085 836.102 755.947C839.107 757.788 841.424 760.444 843.053 763.914C844.703 767.362 845.529 771.351 845.529 775.879V777.942ZM835.88 775.847C835.88 771.002 835.013 767.32 833.278 764.802C831.543 762.284 829.067 761.025 825.851 761.025C822.656 761.025 820.191 762.274 818.456 764.771C816.721 767.246 815.843 770.885 815.821 775.688V777.942C815.821 782.66 816.689 786.321 818.424 788.923C820.159 791.526 822.656 792.827 825.914 792.827C829.109 792.827 831.564 791.579 833.278 789.082C834.991 786.564 835.859 782.904 835.88 778.101V775.847ZM863.269 792.351H883.486V800H853.747V753.789H863.269V792.351ZM924.491 753.789V784.226C924.491 789.283 922.904 793.282 919.73 796.223C916.577 799.164 912.261 800.635 906.781 800.635C901.385 800.635 897.101 799.207 893.927 796.35C890.753 793.494 889.134 789.569 889.071 784.575V753.789H898.592V784.29C898.592 787.315 899.312 789.526 900.751 790.923C902.211 792.298 904.221 792.986 906.781 792.986C912.134 792.986 914.853 790.172 914.938 784.543V753.789H924.491ZM968.384 761.501H954.228V800H944.707V761.501H930.742V753.789H968.384V761.501ZM985.267 800H975.746V753.789H985.267V800ZM1033.38 777.942C1033.38 782.491 1032.58 786.479 1030.97 789.907C1029.36 793.335 1027.05 795.98 1024.05 797.842C1021.07 799.704 1017.64 800.635 1013.77 800.635C1009.94 800.635 1006.52 799.714 1003.52 797.874C1000.51 796.033 998.183 793.409 996.533 790.002C994.883 786.575 994.047 782.639 994.026 778.196V775.911C994.026 771.361 994.84 767.362 996.469 763.914C998.12 760.444 1000.44 757.788 1003.42 755.947C1006.42 754.085 1009.85 753.154 1013.7 753.154C1017.55 753.154 1020.97 754.085 1023.95 755.947C1026.96 757.788 1029.28 760.444 1030.91 763.914C1032.56 767.362 1033.38 771.351 1033.38 775.879V777.942ZM1023.73 775.847C1023.73 771.002 1022.87 767.32 1021.13 764.802C1019.4 762.284 1016.92 761.025 1013.7 761.025C1010.51 761.025 1008.04 762.274 1006.31 764.771C1004.57 767.246 1003.7 770.885 1003.67 775.688V777.942C1003.67 782.66 1004.54 786.321 1006.28 788.923C1008.01 791.526 1010.51 792.827 1013.77 792.827C1016.96 792.827 1019.42 791.579 1021.13 789.082C1022.84 786.564 1023.71 782.904 1023.73 778.101V775.847ZM1079.18 800H1069.66L1051.12 769.595V800H1041.6V753.789H1051.12L1069.69 784.258V753.789H1079.18V800ZM1112.76 787.876C1112.76 786.077 1112.12 784.702 1110.85 783.75C1109.58 782.777 1107.3 781.761 1104 780.703C1100.7 779.624 1098.08 778.566 1096.16 777.529C1090.91 774.694 1088.29 770.875 1088.29 766.072C1088.29 763.575 1088.98 761.353 1090.38 759.407C1091.8 757.439 1093.82 755.905 1096.44 754.805C1099.09 753.704 1102.05 753.154 1105.33 753.154C1108.63 753.154 1111.57 753.757 1114.15 754.963C1116.73 756.148 1118.73 757.83 1120.15 760.01C1121.59 762.189 1122.31 764.665 1122.31 767.437H1112.79C1112.79 765.321 1112.12 763.681 1110.79 762.517C1109.46 761.332 1107.58 760.74 1105.17 760.74C1102.84 760.74 1101.03 761.237 1099.74 762.231C1098.45 763.205 1097.81 764.495 1097.81 766.104C1097.81 767.606 1098.56 768.865 1100.06 769.88C1101.58 770.896 1103.82 771.848 1106.76 772.737C1112.17 774.366 1116.12 776.387 1118.6 778.799C1121.07 781.211 1122.31 784.215 1122.31 787.812C1122.31 791.812 1120.8 794.954 1117.77 797.239C1114.74 799.503 1110.67 800.635 1105.55 800.635C1102 800.635 1098.76 799.989 1095.84 798.699C1092.92 797.387 1090.69 795.599 1089.14 793.335C1087.62 791.071 1086.86 788.447 1086.86 785.464H1096.41C1096.41 790.563 1099.46 793.113 1105.55 793.113C1107.82 793.113 1109.58 792.658 1110.85 791.748C1112.12 790.817 1112.76 789.526 1112.76 787.876Z" fill="black"/>
<path d="M330.662 880.715C331.444 880.715 332.238 880.493 333.042 880.048C333.867 879.583 334.661 878.959 335.422 878.176C336.205 877.372 336.946 876.43 337.644 875.351C338.342 874.272 338.977 873.119 339.548 871.892C340.141 870.643 340.638 869.353 341.04 868.02C341.463 866.665 341.781 865.311 341.992 863.957C342.035 861.989 342.13 860.043 342.278 858.117C342.447 856.171 342.627 854.404 342.817 852.817C343.05 850.976 343.293 849.209 343.547 847.517L348.594 846.152C348.34 848.014 348.107 850.119 347.896 852.468C347.726 854.478 347.568 856.858 347.419 859.609C347.292 862.36 347.229 865.385 347.229 868.686C347.229 871.352 347.398 873.584 347.737 875.383C348.097 877.16 348.573 878.599 349.165 879.699C349.779 880.778 350.477 881.551 351.26 882.016C352.064 882.46 352.91 882.683 353.799 882.683C354.941 882.683 355.999 882.333 356.973 881.635C357.967 880.937 358.856 879.964 359.639 878.715C360.443 877.467 361.152 875.996 361.765 874.304C362.379 872.59 362.897 870.728 363.32 868.718C363.743 866.708 364.061 864.592 364.272 862.37C364.484 860.148 364.59 857.906 364.59 855.642C364.59 852.679 364.463 850.066 364.209 847.802C363.976 845.517 363.648 843.539 363.225 841.867C362.823 840.196 362.347 838.799 361.797 837.678C361.247 836.556 360.665 835.657 360.051 834.98C359.459 834.282 358.845 833.795 358.21 833.52C357.576 833.224 356.973 833.076 356.401 833.076C355.788 833.076 355.227 833.192 354.719 833.425C354.211 833.636 353.746 833.911 353.323 834.25C352.921 834.589 352.55 834.948 352.212 835.329C351.895 835.689 351.63 836.027 351.418 836.345L349.958 835.488C350.212 835.086 350.593 834.578 351.101 833.964C351.63 833.33 352.254 832.727 352.974 832.155C353.714 831.563 354.539 831.066 355.449 830.664C356.38 830.24 357.375 830.029 358.433 830.029C359.977 830.029 361.342 830.547 362.527 831.584C363.733 832.621 364.738 834.091 365.542 835.996C366.367 837.9 366.991 840.185 367.415 842.851C367.838 845.517 368.049 848.479 368.049 851.738C368.049 854.446 367.912 857.144 367.637 859.831C367.383 862.497 366.991 865.047 366.462 867.48C365.933 869.913 365.267 872.177 364.463 874.272C363.659 876.367 362.717 878.186 361.638 879.731C360.559 881.254 359.342 882.45 357.988 883.317C356.634 884.185 355.132 884.619 353.481 884.619C352.021 884.619 350.667 884.322 349.419 883.73C348.192 883.138 347.102 882.259 346.15 881.096C345.198 879.911 344.394 878.451 343.738 876.716C343.082 874.96 342.606 872.939 342.31 870.654C341.696 872.262 340.945 873.817 340.056 875.319C339.167 876.8 338.173 878.112 337.073 879.255C335.972 880.397 334.788 881.307 333.518 881.984C332.249 882.661 330.926 883 329.551 883C328.281 883 327.054 882.799 325.869 882.397C324.684 881.974 323.626 881.265 322.695 880.271C321.785 879.276 321.056 877.954 320.505 876.303C319.955 874.632 319.68 872.548 319.68 870.051C319.68 868.125 319.86 866.179 320.22 864.211C320.579 862.222 321.034 860.244 321.584 858.276C322.135 856.308 322.727 854.361 323.362 852.436C323.997 850.511 324.589 848.638 325.139 846.818C325.689 844.999 326.144 843.253 326.504 841.582C326.864 839.91 327.043 838.334 327.043 836.853C327.043 834.927 326.652 833.531 325.869 832.663C325.107 831.774 324.06 831.33 322.727 831.33C321.246 831.33 319.828 831.669 318.474 832.346C317.141 833.002 315.893 833.89 314.729 835.012C313.586 836.133 312.539 837.434 311.587 838.916C310.656 840.375 309.862 841.92 309.207 843.549C308.551 845.179 308.043 846.829 307.683 848.5C307.323 850.172 307.144 851.77 307.144 853.293C307.144 857.504 308.403 859.609 310.92 859.609C311.724 859.609 312.528 859.366 313.333 858.879C314.137 858.371 314.898 857.673 315.618 856.784C316.337 855.896 316.993 854.838 317.585 853.61C318.178 852.362 318.686 850.997 319.109 849.516L320.474 850.183C320.262 850.839 319.987 851.569 319.648 852.373C319.331 853.155 318.95 853.959 318.506 854.785C318.062 855.61 317.554 856.414 316.982 857.197C316.411 857.958 315.776 858.646 315.078 859.26C314.38 859.852 313.608 860.328 312.761 860.688C311.936 861.048 311.037 861.228 310.063 861.228C308.011 861.228 306.371 860.54 305.144 859.165C303.917 857.768 303.303 855.684 303.303 852.912C303.303 851.071 303.589 849.22 304.16 847.358C304.71 845.496 305.472 843.708 306.445 841.994C307.419 840.28 308.561 838.672 309.873 837.17C311.185 835.668 312.592 834.366 314.094 833.266C315.597 832.166 317.152 831.298 318.76 830.664C320.389 830.029 321.997 829.711 323.584 829.711C324.896 829.711 326.081 829.881 327.139 830.219C328.197 830.558 329.085 831.087 329.805 831.806C330.545 832.526 331.106 833.435 331.487 834.536C331.889 835.636 332.09 836.948 332.09 838.471C332.09 839.973 331.921 841.603 331.582 843.359C331.265 845.115 330.852 846.956 330.344 848.881C329.858 850.786 329.318 852.753 328.726 854.785C328.154 856.795 327.615 858.826 327.107 860.878C326.62 862.91 326.208 864.93 325.869 866.94C325.552 868.929 325.393 870.855 325.393 872.717C325.393 874.156 325.509 875.383 325.742 876.398C325.975 877.414 326.313 878.239 326.758 878.874C327.202 879.509 327.752 879.974 328.408 880.271C329.064 880.567 329.815 880.715 330.662 880.715ZM390.425 875.129C390.425 876.335 390.531 877.351 390.742 878.176C390.954 879.001 391.324 879.414 391.853 879.414C392.17 879.414 392.509 879.265 392.869 878.969C393.25 878.652 393.683 878.144 394.17 877.446C394.657 876.748 395.207 875.848 395.82 874.748C396.455 873.627 397.174 872.262 397.979 870.654L398.931 868.686L400.232 869.67L399.28 871.638C398.391 873.415 397.555 875.013 396.772 876.43C396.011 877.827 395.281 879.012 394.583 879.985C393.884 880.958 393.197 881.709 392.52 882.238C391.864 882.746 391.208 883 390.552 883C389.854 883 389.261 882.81 388.774 882.429C388.309 882.048 387.917 881.529 387.6 880.874C387.283 880.196 387.039 879.424 386.87 878.557C386.701 877.668 386.584 876.726 386.521 875.732C386.013 876.748 385.452 877.7 384.839 878.588C384.225 879.456 383.58 880.218 382.903 880.874C382.247 881.529 381.559 882.048 380.84 882.429C380.12 882.81 379.401 883 378.682 883C377.624 883 376.597 882.778 375.603 882.333C374.609 881.889 373.72 881.212 372.937 880.302C372.175 879.392 371.562 878.25 371.096 876.875C370.631 875.478 370.398 873.838 370.398 871.955C370.398 869.755 370.684 867.744 371.255 865.925C371.826 864.084 372.598 862.508 373.572 861.196C374.545 859.863 375.667 858.837 376.936 858.117C378.206 857.377 379.539 857.006 380.935 857.006C381.781 857.006 382.564 857.197 383.284 857.578C384.003 857.958 384.627 858.424 385.156 858.974C385.706 859.503 386.161 860.074 386.521 860.688C386.881 861.28 387.124 861.788 387.251 862.211L387.632 859.133C387.674 858.731 387.865 858.392 388.203 858.117C388.563 857.842 388.954 857.631 389.377 857.482C389.801 857.313 390.213 857.197 390.615 857.133C391.017 857.049 391.303 857.006 391.472 857.006C391.726 857.006 391.895 857.049 391.98 857.133C392.065 857.218 392.107 857.387 392.107 857.641C392.107 857.958 392.012 858.604 391.821 859.577C391.652 860.529 391.462 861.757 391.25 863.259C391.06 864.74 390.869 866.486 390.679 868.496C390.509 870.506 390.425 872.717 390.425 875.129ZM386.934 866.75C386.934 865.777 386.785 864.825 386.489 863.894C386.193 862.941 385.791 862.106 385.283 861.386C384.775 860.646 384.183 860.053 383.506 859.609C382.85 859.165 382.152 858.942 381.411 858.942C380.501 858.942 379.644 859.207 378.84 859.736C378.057 860.244 377.37 860.974 376.777 861.926C376.206 862.857 375.751 863.989 375.413 865.322C375.074 866.634 374.905 868.083 374.905 869.67C374.905 872.844 375.402 875.266 376.396 876.938C377.391 878.588 378.713 879.414 380.364 879.414C381.083 879.414 381.824 879.128 382.585 878.557C383.368 877.964 384.077 877.128 384.712 876.049C385.368 874.949 385.897 873.616 386.299 872.05C386.722 870.485 386.934 868.718 386.934 866.75ZM400.93 857.895C401.015 857.683 401.216 857.514 401.533 857.387C401.851 857.26 402.189 857.176 402.549 857.133C402.909 857.07 403.247 857.038 403.564 857.038C403.882 857.017 404.093 857.006 404.199 857.006C404.517 857.006 404.718 857.091 404.802 857.26C404.908 857.408 404.961 857.652 404.961 857.99C404.961 858.16 404.908 858.54 404.802 859.133C404.696 859.704 404.559 860.424 404.39 861.291C404.242 862.159 404.072 863.142 403.882 864.243C403.713 865.343 403.543 866.475 403.374 867.639C403.226 868.802 403.099 869.987 402.993 871.193C402.887 872.378 402.834 873.5 402.834 874.558C402.834 876.398 403.141 877.784 403.755 878.715C404.368 879.625 405.077 880.08 405.881 880.08C407.278 880.08 408.516 879.054 409.595 877.001C410.674 874.949 411.795 871.944 412.959 867.988V858.752C412.959 858.392 413.118 858.107 413.435 857.895C413.774 857.662 414.154 857.482 414.578 857.355C415.001 857.229 415.413 857.144 415.815 857.102C416.217 857.038 416.503 857.006 416.672 857.006C417.328 857.006 417.656 857.334 417.656 857.99C417.656 858.223 417.635 858.614 417.593 859.165C417.572 859.694 417.54 860.328 417.498 861.069C417.455 861.788 417.413 862.592 417.371 863.481C417.349 864.348 417.339 865.227 417.339 866.115V879.033C417.72 878.546 418.196 877.901 418.767 877.097C419.36 876.293 419.963 875.436 420.576 874.526C421.211 873.616 421.814 872.706 422.385 871.796C422.978 870.887 423.454 870.072 423.813 869.353L424.163 868.686L425.464 869.67L425.115 870.336C424.67 871.225 424.141 872.146 423.528 873.098C422.914 874.05 422.258 875.013 421.56 875.986C420.883 876.938 420.174 877.89 419.434 878.842C418.714 879.773 418.016 880.662 417.339 881.508V888.522C417.339 890.469 417.159 892.119 416.799 893.474C416.461 894.849 415.985 895.96 415.371 896.806C414.757 897.674 414.038 898.298 413.213 898.679C412.388 899.06 411.488 899.25 410.515 899.25C409.902 899.25 409.33 899.155 408.801 898.964C408.293 898.774 407.849 898.488 407.468 898.107C407.087 897.748 406.791 897.303 406.58 896.774C406.368 896.267 406.262 895.685 406.262 895.029C406.262 894.077 406.431 893.125 406.77 892.172C407.13 891.22 407.616 890.236 408.23 889.221C408.865 888.205 409.595 887.158 410.42 886.079C411.245 885.021 412.134 883.91 413.086 882.746V873.129C412.557 874.568 411.986 875.901 411.372 877.128C410.758 878.334 410.092 879.371 409.373 880.239C408.653 881.106 407.881 881.783 407.056 882.27C406.23 882.757 405.342 883 404.39 883C403.713 883 403.014 882.894 402.295 882.683C401.597 882.45 400.941 882.037 400.327 881.445C399.735 880.852 399.248 880.059 398.867 879.064C398.486 878.049 398.296 876.758 398.296 875.192C398.296 873.415 398.402 871.606 398.613 869.765C398.825 867.924 399.068 866.21 399.343 864.624C399.639 863.037 399.936 861.651 400.232 860.466C400.528 859.26 400.761 858.403 400.93 857.895ZM410.166 897.314C410.505 897.314 410.843 897.24 411.182 897.092C411.541 896.965 411.859 896.658 412.134 896.171C412.409 895.685 412.631 894.965 412.8 894.013C412.991 893.061 413.086 891.77 413.086 890.141V885.349C412.367 886.237 411.7 887.094 411.086 887.919C410.494 888.766 409.976 889.58 409.531 890.363C409.087 891.167 408.738 891.94 408.484 892.68C408.23 893.421 408.103 894.14 408.103 894.838C408.103 895.494 408.283 896.066 408.643 896.552C409.002 897.06 409.51 897.314 410.166 897.314ZM439.048 872.59C439.048 870.347 439.132 868.094 439.302 865.83C439.471 863.566 439.693 861.27 439.968 858.942H437.08L437.429 857.006H440.222C440.518 854.848 440.815 852.69 441.111 850.532C441.428 848.352 441.714 846.173 441.968 843.994H445.205C445.163 844.459 445.099 845.136 445.015 846.025C444.951 846.892 444.867 847.908 444.761 849.072C444.676 850.214 444.591 851.473 444.507 852.849C444.422 854.203 444.338 855.589 444.253 857.006H450.41L450.093 858.942H444.126C444.041 860.148 443.967 861.333 443.904 862.497C443.84 863.661 443.777 864.772 443.713 865.83C443.671 866.866 443.639 867.829 443.618 868.718C443.597 869.585 443.586 870.336 443.586 870.971C443.586 872.579 443.629 873.923 443.713 875.002C443.819 876.081 443.967 876.949 444.158 877.604C444.369 878.26 444.623 878.726 444.919 879.001C445.237 879.276 445.597 879.414 445.999 879.414C446.528 879.414 447.109 879.149 447.744 878.62C448.4 878.07 449.077 877.34 449.775 876.43C450.474 875.52 451.182 874.462 451.902 873.256C452.621 872.029 453.319 870.728 453.997 869.353L454.314 868.686L455.615 869.67L455.298 870.336C454.325 872.304 453.351 874.071 452.378 875.637C451.426 877.202 450.484 878.535 449.553 879.636C448.622 880.715 447.712 881.551 446.824 882.143C445.935 882.714 445.078 883 444.253 883C443.428 883 442.687 882.81 442.031 882.429C441.396 882.048 440.857 881.445 440.413 880.62C439.968 879.773 439.63 878.694 439.397 877.382C439.164 876.07 439.048 874.473 439.048 872.59ZM480.942 869.67L480.593 870.336C479.874 871.775 478.911 872.928 477.705 873.796C476.52 874.642 475.229 875.192 473.833 875.446C473.452 876.525 472.955 877.53 472.341 878.461C471.749 879.371 471.061 880.165 470.278 880.842C469.517 881.519 468.649 882.048 467.676 882.429C466.724 882.81 465.687 883 464.565 883C462.936 883 461.466 882.661 460.154 881.984C458.863 881.286 457.763 880.355 456.853 879.191C455.943 878.007 455.245 876.631 454.758 875.065C454.272 873.479 454.028 871.786 454.028 869.987C454.028 868.422 454.208 867.004 454.568 865.734C454.928 864.444 455.382 863.301 455.933 862.307C456.483 861.291 457.096 860.413 457.773 859.672C458.451 858.911 459.117 858.286 459.773 857.8C460.429 857.313 461.021 856.953 461.55 856.721C462.1 856.467 462.513 856.34 462.788 856.34L463.201 857.451C462.333 858.085 461.561 858.974 460.884 860.117C460.291 861.09 459.752 862.381 459.265 863.989C458.8 865.597 458.567 867.596 458.567 869.987C458.567 871.447 458.704 872.865 458.979 874.24C459.255 875.616 459.657 876.832 460.186 877.89C460.715 878.948 461.36 879.794 462.122 880.429C462.904 881.064 463.783 881.381 464.756 881.381C466.089 881.381 467.189 880.852 468.057 879.794C468.945 878.715 469.601 877.245 470.024 875.383C468.924 875.15 467.877 874.716 466.882 874.082C465.888 873.447 465.01 872.664 464.248 871.733C463.486 870.781 462.873 869.691 462.407 868.464C461.963 867.237 461.741 865.904 461.741 864.465C461.741 863.28 461.889 862.243 462.185 861.354C462.502 860.445 462.915 859.694 463.423 859.101C463.931 858.487 464.513 858.033 465.168 857.736C465.846 857.419 466.554 857.26 467.295 857.26C468.162 857.26 469.051 857.514 469.961 858.022C470.871 858.509 471.696 859.249 472.437 860.244C473.177 861.217 473.78 862.444 474.246 863.925C474.711 865.406 474.944 867.131 474.944 869.099C474.944 869.839 474.902 870.569 474.817 871.289C474.732 872.008 474.605 872.706 474.436 873.383C475.452 873.087 476.372 872.611 477.197 871.955C478.044 871.299 478.742 870.432 479.292 869.353L479.641 868.686L480.942 869.67ZM463.835 864.211C463.835 865.459 464.005 866.612 464.343 867.67C464.703 868.707 465.179 869.628 465.771 870.432C466.364 871.215 467.052 871.87 467.834 872.399C468.617 872.928 469.453 873.299 470.342 873.51C470.448 872.918 470.511 872.304 470.532 871.669C470.575 871.014 470.596 870.347 470.596 869.67C470.596 868.168 470.479 866.813 470.247 865.607C470.014 864.38 469.707 863.343 469.326 862.497C468.945 861.63 468.501 860.963 467.993 860.498C467.485 860.032 466.967 859.799 466.438 859.799C465.719 859.799 465.105 860.191 464.597 860.974C464.089 861.735 463.835 862.814 463.835 864.211ZM503.508 895.029C503.508 894.098 503.678 893.156 504.016 892.204C504.376 891.252 504.862 890.279 505.476 889.284C506.09 888.29 506.799 887.253 507.603 886.174C508.428 885.116 509.316 884.016 510.269 882.873V876.875C509.761 877.869 509.189 878.747 508.555 879.509C507.92 880.271 507.243 880.916 506.523 881.445C505.825 881.953 505.095 882.344 504.333 882.619C503.593 882.873 502.863 883 502.144 883C501.149 883 500.186 882.757 499.255 882.27C498.346 881.783 497.531 881.053 496.812 880.08C496.092 879.086 495.521 877.837 495.098 876.335C494.674 874.833 494.463 873.066 494.463 871.035C494.463 869.321 494.664 867.628 495.066 865.957C495.468 864.285 496.071 862.793 496.875 861.481C497.679 860.148 498.674 859.069 499.858 858.244C501.043 857.419 502.429 857.006 504.016 857.006C505.264 857.006 506.428 857.26 507.507 857.768C508.608 858.276 509.528 859.016 510.269 859.99V859.609C510.269 859.207 510.385 858.847 510.618 858.53C510.872 858.191 511.178 857.916 511.538 857.705C511.919 857.472 512.31 857.303 512.712 857.197C513.136 857.07 513.506 857.006 513.823 857.006C514.183 857.006 514.437 857.059 514.585 857.165C514.733 857.25 514.807 857.408 514.807 857.641C514.807 857.98 514.765 858.741 514.68 859.926C514.596 861.111 514.553 862.846 514.553 865.131V878.906C515.082 878.25 515.643 877.52 516.235 876.716C516.828 875.912 517.42 875.076 518.013 874.208C518.605 873.32 519.176 872.41 519.727 871.479C520.298 870.548 520.827 869.617 521.313 868.686L521.631 868.051L522.932 869.035L522.615 869.67C522.107 870.686 521.514 871.743 520.837 872.844C520.181 873.923 519.483 874.991 518.743 876.049C518.023 877.086 517.293 878.091 516.553 879.064C515.833 880.017 515.167 880.874 514.553 881.635V888.522C514.553 890.469 514.373 892.119 514.014 893.474C513.675 894.849 513.199 895.96 512.585 896.806C511.993 897.674 511.274 898.298 510.427 898.679C509.602 899.06 508.703 899.25 507.729 899.25C506.523 899.25 505.518 898.869 504.714 898.107C503.91 897.367 503.508 896.341 503.508 895.029ZM504.08 879.763C504.736 879.763 505.381 879.572 506.016 879.191C506.672 878.811 507.275 878.324 507.825 877.731C508.375 877.139 508.861 876.494 509.285 875.795C509.729 875.076 510.057 874.378 510.269 873.701V864.75C510.269 863.798 510.12 862.941 509.824 862.18C509.528 861.397 509.137 860.741 508.65 860.212C508.163 859.662 507.603 859.239 506.968 858.942C506.354 858.646 505.719 858.498 505.063 858.498C504.048 858.498 503.159 858.805 502.397 859.418C501.636 860.011 501.001 860.804 500.493 861.799C499.985 862.772 499.604 863.894 499.351 865.163C499.118 866.433 499.001 867.723 499.001 869.035C499.001 870.664 499.097 872.135 499.287 873.447C499.499 874.759 499.816 875.891 500.239 876.843C500.662 877.774 501.191 878.493 501.826 879.001C502.461 879.509 503.212 879.763 504.08 879.763ZM507.38 897.314C507.719 897.314 508.057 897.24 508.396 897.092C508.756 896.965 509.073 896.658 509.348 896.171C509.623 895.685 509.845 894.965 510.015 894.013C510.184 893.061 510.269 891.77 510.269 890.141V885.412C508.809 887.168 507.613 888.829 506.682 890.395C505.772 891.982 505.317 893.463 505.317 894.838C505.317 895.494 505.497 896.066 505.857 896.552C506.217 897.06 506.724 897.314 507.38 897.314ZM548.228 869.67L547.878 870.336C547.159 871.775 546.196 872.928 544.99 873.796C543.805 874.642 542.515 875.192 541.118 875.446C540.737 876.525 540.24 877.53 539.626 878.461C539.034 879.371 538.346 880.165 537.563 880.842C536.802 881.519 535.934 882.048 534.961 882.429C534.009 882.81 532.972 883 531.851 883C530.221 883 528.751 882.661 527.439 881.984C526.148 881.286 525.048 880.355 524.138 879.191C523.228 878.007 522.53 876.631 522.043 875.065C521.557 873.479 521.313 871.786 521.313 869.987C521.313 868.422 521.493 867.004 521.853 865.734C522.213 864.444 522.668 863.301 523.218 862.307C523.768 861.291 524.382 860.413 525.059 859.672C525.736 858.911 526.402 858.286 527.058 857.8C527.714 857.313 528.306 856.953 528.835 856.721C529.386 856.467 529.798 856.34 530.073 856.34L530.486 857.451C529.618 858.085 528.846 858.974 528.169 860.117C527.576 861.09 527.037 862.381 526.55 863.989C526.085 865.597 525.852 867.596 525.852 869.987C525.852 871.447 525.99 872.865 526.265 874.24C526.54 875.616 526.942 876.832 527.471 877.89C528 878.948 528.645 879.794 529.407 880.429C530.19 881.064 531.068 881.381 532.041 881.381C533.374 881.381 534.474 880.852 535.342 879.794C536.23 878.715 536.886 877.245 537.31 875.383C536.209 875.15 535.162 874.716 534.167 874.082C533.173 873.447 532.295 872.664 531.533 871.733C530.771 870.781 530.158 869.691 529.692 868.464C529.248 867.237 529.026 865.904 529.026 864.465C529.026 863.28 529.174 862.243 529.47 861.354C529.788 860.445 530.2 859.694 530.708 859.101C531.216 858.487 531.798 858.033 532.454 857.736C533.131 857.419 533.84 857.26 534.58 857.26C535.448 857.26 536.336 857.514 537.246 858.022C538.156 858.509 538.981 859.249 539.722 860.244C540.462 861.217 541.065 862.444 541.531 863.925C541.996 865.406 542.229 867.131 542.229 869.099C542.229 869.839 542.187 870.569 542.102 871.289C542.017 872.008 541.89 872.706 541.721 873.383C542.737 873.087 543.657 872.611 544.482 871.955C545.329 871.299 546.027 870.432 546.577 869.353L546.926 868.686L548.228 869.67ZM531.121 864.211C531.121 865.459 531.29 866.612 531.628 867.67C531.988 868.707 532.464 869.628 533.057 870.432C533.649 871.215 534.337 871.87 535.12 872.399C535.903 872.928 536.738 873.299 537.627 873.51C537.733 872.918 537.796 872.304 537.817 871.669C537.86 871.014 537.881 870.347 537.881 869.67C537.881 868.168 537.764 866.813 537.532 865.607C537.299 864.38 536.992 863.343 536.611 862.497C536.23 861.63 535.786 860.963 535.278 860.498C534.771 860.032 534.252 859.799 533.723 859.799C533.004 859.799 532.39 860.191 531.882 860.974C531.375 861.735 531.121 862.814 531.121 864.211ZM552.417 875.859C552.904 875.859 553.348 875.965 553.75 876.176C554.152 876.367 554.501 876.642 554.797 877.001C555.094 877.361 555.316 877.784 555.464 878.271C555.633 878.758 555.718 879.276 555.718 879.826C555.718 880.926 555.474 881.942 554.988 882.873C554.501 883.804 553.972 884.608 553.401 885.285C552.724 886.089 551.962 886.819 551.116 887.475L550.195 886.65C550.386 886.523 550.608 886.311 550.862 886.015C551.137 885.74 551.38 885.423 551.592 885.063C551.825 884.703 552.015 884.322 552.163 883.92C552.332 883.518 552.417 883.127 552.417 882.746C552.417 882.492 552.269 882.281 551.973 882.111C551.676 881.921 551.348 881.699 550.989 881.445C550.629 881.191 550.301 880.874 550.005 880.493C549.709 880.091 549.561 879.541 549.561 878.842C549.561 878.44 549.635 878.059 549.783 877.7C549.931 877.34 550.132 877.023 550.386 876.748C550.661 876.472 550.968 876.261 551.306 876.113C551.666 875.944 552.036 875.859 552.417 875.859ZM598.691 846.977C599.178 846.617 599.612 846.184 599.993 845.676C600.395 845.168 600.733 844.618 601.008 844.025C601.283 843.433 601.495 842.809 601.643 842.153C601.791 841.497 601.865 840.83 601.865 840.153C601.865 839.138 601.685 838.133 601.326 837.138C600.987 836.123 600.426 835.213 599.644 834.409C598.882 833.583 597.887 832.917 596.66 832.409C595.433 831.901 593.941 831.647 592.185 831.647C590.238 831.647 588.398 831.965 586.663 832.6C584.928 833.234 583.404 834.091 582.092 835.17C580.802 836.25 579.775 837.498 579.014 838.916C578.252 840.333 577.871 841.814 577.871 843.359C577.871 844.988 578.252 846.438 579.014 847.707C579.797 848.955 580.812 850.098 582.061 851.135C583.33 852.15 584.769 853.092 586.377 853.959C587.985 854.827 589.625 855.684 591.296 856.53C592.968 857.377 594.608 858.265 596.216 859.196C597.824 860.106 599.252 861.132 600.5 862.275C601.77 863.417 602.786 864.698 603.547 866.115C604.33 867.533 604.722 869.173 604.722 871.035C604.722 872.812 604.299 874.515 603.452 876.145C602.606 877.774 601.442 879.223 599.961 880.493C598.48 881.741 596.734 882.736 594.724 883.476C592.735 884.238 590.588 884.619 588.281 884.619C585.7 884.619 583.563 884.333 581.87 883.762C580.199 883.212 578.866 882.513 577.871 881.667C576.898 880.821 576.221 879.911 575.84 878.938C575.459 877.943 575.269 877.023 575.269 876.176C575.269 875.139 575.427 874.208 575.745 873.383C576.083 872.537 576.528 871.786 577.078 871.13C577.628 870.453 578.241 869.871 578.918 869.384C579.617 868.876 580.326 868.453 581.045 868.115C581.785 867.755 582.494 867.469 583.171 867.258C583.87 867.025 584.494 866.856 585.044 866.75L585.361 868.369C585.107 868.453 584.642 868.665 583.965 869.003C583.309 869.321 582.621 869.797 581.902 870.432C581.182 871.045 580.548 871.818 579.998 872.749C579.447 873.68 579.172 874.78 579.172 876.049C579.172 876.917 579.352 877.763 579.712 878.588C580.093 879.414 580.653 880.154 581.394 880.81C582.135 881.466 583.044 881.995 584.124 882.397C585.203 882.799 586.462 883 587.9 883C589.635 883 591.148 882.841 592.439 882.524C593.751 882.185 594.872 881.752 595.803 881.223C596.755 880.694 597.528 880.091 598.12 879.414C598.734 878.715 599.21 877.996 599.548 877.255C599.908 876.515 600.151 875.785 600.278 875.065C600.426 874.325 600.5 873.658 600.5 873.066C600.5 871.458 600.13 870.051 599.39 868.845C598.649 867.618 597.665 866.528 596.438 865.576C595.232 864.602 593.857 863.724 592.312 862.941C590.767 862.137 589.181 861.344 587.551 860.561C585.943 859.778 584.367 858.964 582.822 858.117C581.278 857.271 579.892 856.308 578.665 855.229C577.458 854.15 576.485 852.923 575.745 851.547C575.004 850.151 574.634 848.522 574.634 846.66C574.634 844.163 575.152 841.878 576.189 839.804C577.226 837.709 578.622 835.922 580.378 834.44C582.135 832.938 584.166 831.774 586.472 830.949C588.8 830.124 591.243 829.711 593.804 829.711C595.983 829.711 597.845 829.965 599.39 830.473C600.934 830.981 602.193 831.647 603.167 832.473C604.161 833.298 604.88 834.239 605.325 835.297C605.79 836.355 606.023 837.434 606.023 838.535C606.023 839.847 605.79 841.042 605.325 842.121C604.88 843.2 604.33 844.163 603.674 845.009C603.04 845.834 602.352 846.533 601.611 847.104C600.871 847.654 600.215 848.046 599.644 848.278L598.691 846.977ZM611.418 857.895C611.503 857.683 611.704 857.514 612.021 857.387C612.339 857.26 612.677 857.176 613.037 857.133C613.397 857.07 613.735 857.038 614.053 857.038C614.37 857.017 614.582 857.006 614.688 857.006C615.005 857.006 615.206 857.091 615.291 857.26C615.396 857.408 615.449 857.652 615.449 857.99C615.449 858.16 615.396 858.54 615.291 859.133C615.185 859.704 615.047 860.424 614.878 861.291C614.73 862.159 614.561 863.142 614.37 864.243C614.201 865.343 614.032 866.475 613.862 867.639C613.714 868.802 613.587 869.987 613.481 871.193C613.376 872.378 613.323 873.5 613.323 874.558C613.323 876.398 613.63 877.784 614.243 878.715C614.857 879.625 615.566 880.08 616.37 880.08C617.766 880.08 619.004 879.054 620.083 877.001C621.162 874.949 622.284 871.944 623.447 867.988V858.752C623.447 858.392 623.606 858.107 623.923 857.895C624.262 857.662 624.643 857.482 625.066 857.355C625.489 857.229 625.902 857.144 626.304 857.102C626.706 857.038 626.991 857.006 627.161 857.006C627.817 857.006 628.145 857.334 628.145 857.99C628.145 858.223 628.123 858.614 628.081 859.165C628.06 859.694 628.028 860.328 627.986 861.069C627.944 861.788 627.901 862.592 627.859 863.481C627.838 864.348 627.827 865.227 627.827 866.115V879.033C628.208 878.546 628.684 877.901 629.255 877.097C629.848 876.293 630.451 875.436 631.064 874.526C631.699 873.616 632.302 872.706 632.874 871.796C633.466 870.887 633.942 870.072 634.302 869.353L634.651 868.686L635.952 869.67L635.603 870.336C635.159 871.225 634.63 872.146 634.016 873.098C633.403 874.05 632.747 875.013 632.048 875.986C631.371 876.938 630.662 877.89 629.922 878.842C629.202 879.773 628.504 880.662 627.827 881.508V888.522C627.827 890.469 627.647 892.119 627.288 893.474C626.949 894.849 626.473 895.96 625.859 896.806C625.246 897.674 624.526 898.298 623.701 898.679C622.876 899.06 621.977 899.25 621.003 899.25C620.39 899.25 619.819 899.155 619.29 898.964C618.782 898.774 618.337 898.488 617.957 898.107C617.576 897.748 617.279 897.303 617.068 896.774C616.856 896.267 616.75 895.685 616.75 895.029C616.75 894.077 616.92 893.125 617.258 892.172C617.618 891.22 618.105 890.236 618.718 889.221C619.353 888.205 620.083 887.158 620.908 886.079C621.733 885.021 622.622 883.91 623.574 882.746V873.129C623.045 874.568 622.474 875.901 621.86 877.128C621.247 878.334 620.58 879.371 619.861 880.239C619.141 881.106 618.369 881.783 617.544 882.27C616.719 882.757 615.83 883 614.878 883C614.201 883 613.503 882.894 612.783 882.683C612.085 882.45 611.429 882.037 610.815 881.445C610.223 880.852 609.736 880.059 609.355 879.064C608.975 878.049 608.784 876.758 608.784 875.192C608.784 873.415 608.89 871.606 609.102 869.765C609.313 867.924 609.556 866.21 609.832 864.624C610.128 863.037 610.424 861.651 610.72 860.466C611.016 859.26 611.249 858.403 611.418 857.895ZM620.654 897.314C620.993 897.314 621.331 897.24 621.67 897.092C622.03 896.965 622.347 896.658 622.622 896.171C622.897 895.685 623.119 894.965 623.289 894.013C623.479 893.061 623.574 891.77 623.574 890.141V885.349C622.855 886.237 622.188 887.094 621.575 887.919C620.982 888.766 620.464 889.58 620.02 890.363C619.575 891.167 619.226 891.94 618.972 892.68C618.718 893.421 618.591 894.14 618.591 894.838C618.591 895.494 618.771 896.066 619.131 896.552C619.491 897.06 619.998 897.314 620.654 897.314ZM653.218 871.955C653.218 873.394 652.996 874.78 652.551 876.113C652.128 877.425 651.493 878.599 650.647 879.636C649.822 880.651 648.785 881.466 647.537 882.08C646.309 882.693 644.902 883 643.315 883C642.173 883 641.147 882.82 640.237 882.46C639.348 882.08 638.586 881.582 637.952 880.969C637.317 880.334 636.83 879.625 636.492 878.842C636.153 878.038 635.984 877.213 635.984 876.367C635.984 875.52 636.143 874.737 636.46 874.018C636.799 873.278 637.243 872.653 637.793 872.146C638.364 871.617 639.01 871.204 639.729 870.908C640.448 870.611 641.21 870.463 642.014 870.463C642.522 870.463 643.051 870.527 643.601 870.654V871.574C642.924 871.574 642.257 871.712 641.602 871.987C640.967 872.262 640.396 872.643 639.888 873.129C639.401 873.595 639.01 874.166 638.713 874.843C638.417 875.499 638.269 876.208 638.269 876.97C638.269 878.366 638.745 879.488 639.697 880.334C640.671 881.159 641.993 881.572 643.665 881.572C644.511 881.572 645.283 881.413 645.981 881.096C646.68 880.757 647.272 880.302 647.759 879.731C648.267 879.139 648.647 878.44 648.901 877.636C649.176 876.832 649.314 875.954 649.314 875.002C649.314 874.092 649.134 873.246 648.774 872.463C648.415 871.68 647.939 870.939 647.346 870.241C646.754 869.543 646.077 868.887 645.315 868.273C644.574 867.66 643.813 867.078 643.03 866.528C642.268 865.957 641.517 865.406 640.776 864.877C640.036 864.348 639.39 863.819 638.84 863.291L635.667 870.336L634.365 869.353L637.603 862.275C636.82 861.534 636.238 860.836 635.857 860.18C635.497 859.503 635.317 858.699 635.317 857.768C635.317 857.26 635.402 856.784 635.571 856.34C635.762 855.874 636.005 855.483 636.301 855.166C636.619 854.827 636.978 854.562 637.38 854.372C637.782 854.182 638.206 854.086 638.65 854.086C639.454 854.086 640.057 854.319 640.459 854.785C640.861 855.229 641.062 855.79 641.062 856.467C641.062 856.784 641.03 857.123 640.967 857.482C640.903 857.821 640.819 858.17 640.713 858.53C640.628 858.868 640.533 859.186 640.427 859.482C640.343 859.778 640.269 860.032 640.205 860.244C640.84 860.73 641.602 861.206 642.49 861.672C643.379 862.116 644.299 862.582 645.251 863.068C646.225 863.555 647.188 864.084 648.14 864.655C649.092 865.227 649.938 865.861 650.679 866.56C651.44 867.258 652.054 868.051 652.52 868.94C652.985 869.829 653.218 870.834 653.218 871.955ZM638.713 855.515C638.417 855.515 638.174 855.62 637.983 855.832C637.814 856.022 637.729 856.287 637.729 856.625C637.729 857.006 637.825 857.43 638.015 857.895C638.206 858.361 638.544 858.815 639.031 859.26C639.242 858.815 639.401 858.382 639.507 857.958C639.634 857.535 639.697 857.112 639.697 856.689C639.697 856.35 639.602 856.075 639.412 855.864C639.242 855.631 639.01 855.515 638.713 855.515ZM655.693 872.59C655.693 870.347 655.778 868.094 655.947 865.83C656.117 863.566 656.339 861.27 656.614 858.942H653.726L654.075 857.006H656.868C657.164 854.848 657.46 852.69 657.756 850.532C658.074 848.352 658.359 846.173 658.613 843.994H661.851C661.808 844.459 661.745 845.136 661.66 846.025C661.597 846.892 661.512 847.908 661.406 849.072C661.322 850.214 661.237 851.473 661.152 852.849C661.068 854.203 660.983 855.589 660.898 857.006H667.056L666.738 858.942H660.771C660.687 860.148 660.613 861.333 660.549 862.497C660.486 863.661 660.422 864.772 660.359 865.83C660.317 866.866 660.285 867.829 660.264 868.718C660.243 869.585 660.232 870.336 660.232 870.971C660.232 872.579 660.274 873.923 660.359 875.002C660.465 876.081 660.613 876.949 660.803 877.604C661.015 878.26 661.269 878.726 661.565 879.001C661.882 879.276 662.242 879.414 662.644 879.414C663.173 879.414 663.755 879.149 664.39 878.62C665.046 878.07 665.723 877.34 666.421 876.43C667.119 875.52 667.828 874.462 668.547 873.256C669.267 872.029 669.965 870.728 670.642 869.353L670.959 868.686L672.261 869.67L671.943 870.336C670.97 872.304 669.997 874.071 669.023 875.637C668.071 877.202 667.13 878.535 666.199 879.636C665.268 880.715 664.358 881.551 663.469 882.143C662.581 882.714 661.724 883 660.898 883C660.073 883 659.333 882.81 658.677 882.429C658.042 882.048 657.502 881.445 657.058 880.62C656.614 879.773 656.275 878.694 656.042 877.382C655.81 876.07 655.693 874.473 655.693 872.59ZM680.354 879.414C681.095 879.414 681.846 879.223 682.607 878.842C683.39 878.461 684.173 877.869 684.956 877.065C685.76 876.261 686.585 875.224 687.432 873.955C688.278 872.664 689.146 871.13 690.034 869.353L690.352 868.686L691.653 869.67L691.335 870.336C690.193 872.6 689.05 874.536 687.908 876.145C686.786 877.753 685.675 879.064 684.575 880.08C683.496 881.096 682.428 881.836 681.37 882.302C680.312 882.767 679.296 883 678.323 883C676.947 883 675.72 882.714 674.641 882.143C673.562 881.572 672.652 880.799 671.912 879.826C671.171 878.832 670.61 877.689 670.229 876.398C669.827 875.087 669.626 873.711 669.626 872.272C669.626 869.987 669.944 867.914 670.579 866.052C671.192 864.169 672.017 862.561 673.054 861.228C674.112 859.895 675.308 858.858 676.641 858.117C677.974 857.377 679.36 857.006 680.798 857.006C682.258 857.006 683.369 857.377 684.131 858.117C684.914 858.858 685.305 859.789 685.305 860.91C685.305 861.989 684.998 863.005 684.385 863.957C683.771 864.888 682.935 865.808 681.877 866.718C680.841 867.607 679.635 868.496 678.259 869.384C676.884 870.252 675.435 871.151 673.911 872.082C674.059 873.182 674.313 874.187 674.673 875.097C675.033 875.986 675.487 876.758 676.038 877.414C676.588 878.049 677.222 878.546 677.942 878.906C678.661 879.244 679.465 879.414 680.354 879.414ZM681.338 861.862C681.338 861.016 681.105 860.349 680.64 859.863C680.195 859.376 679.645 859.133 678.989 859.133C678.439 859.133 677.857 859.334 677.244 859.736C676.63 860.117 676.069 860.741 675.562 861.608C675.054 862.455 674.631 863.544 674.292 864.877C673.953 866.21 673.784 867.829 673.784 869.733V870.463C674.504 870.083 675.297 869.585 676.165 868.972C677.053 868.337 677.878 867.639 678.64 866.877C679.402 866.115 680.037 865.311 680.544 864.465C681.073 863.597 681.338 862.73 681.338 861.862ZM700.698 859.26C700.085 859.26 699.492 859.482 698.921 859.926C698.371 860.349 697.842 860.942 697.334 861.704C696.826 862.444 696.329 863.322 695.842 864.338C695.377 865.332 694.911 866.401 694.446 867.543V867.924C694.382 869.786 694.319 871.765 694.255 873.859C694.213 875.954 694.192 878.239 694.192 880.715C694.192 881.138 694.044 881.498 693.748 881.794C693.472 882.069 693.145 882.302 692.764 882.492C692.383 882.661 691.991 882.788 691.589 882.873C691.187 882.958 690.859 883 690.605 883C690.288 883 689.992 882.905 689.717 882.714C689.442 882.524 689.304 882.101 689.304 881.445C689.304 881.127 689.336 880.736 689.399 880.271C689.463 879.784 689.548 879.265 689.653 878.715C689.738 878.165 689.844 877.604 689.971 877.033C690.076 876.441 690.182 875.891 690.288 875.383C690.288 873.584 690.288 871.966 690.288 870.527C690.267 869.088 690.256 867.808 690.256 866.687C690.256 865.565 690.256 864.581 690.256 863.735C690.235 862.889 690.225 862.159 690.225 861.545C690.225 860.529 690.246 859.789 690.288 859.323C690.309 858.837 690.352 858.498 690.415 858.308C690.521 858.011 690.711 857.779 690.986 857.609C691.283 857.44 691.589 857.313 691.907 857.229C692.224 857.123 692.542 857.059 692.859 857.038C693.176 857.017 693.42 857.006 693.589 857.006C693.991 857.006 694.255 857.123 694.382 857.355C694.509 857.588 694.573 857.948 694.573 858.435C694.573 859.535 694.573 860.529 694.573 861.418C694.573 862.307 694.552 863.195 694.509 864.084C694.911 863.132 695.377 862.233 695.906 861.386C696.456 860.519 697.059 859.768 697.715 859.133C698.371 858.477 699.058 857.958 699.778 857.578C700.518 857.197 701.28 857.006 702.063 857.006C703.015 857.006 703.798 857.207 704.412 857.609C705.046 857.99 705.544 858.53 705.903 859.228C706.284 859.926 706.559 860.751 706.729 861.704C706.919 862.635 707.046 863.65 707.109 864.75C707.702 863.671 708.337 862.666 709.014 861.735C709.712 860.783 710.442 859.958 711.204 859.26C711.986 858.562 712.801 858.011 713.647 857.609C714.515 857.207 715.414 857.006 716.345 857.006C717.953 857.006 719.128 857.514 719.868 858.53C720.609 859.524 720.979 860.878 720.979 862.592C720.979 863.671 720.894 864.877 720.725 866.21C720.556 867.543 720.376 868.898 720.186 870.273C719.995 871.627 719.815 872.96 719.646 874.272C719.477 875.584 719.392 876.779 719.392 877.858C719.392 879.17 719.72 879.826 720.376 879.826C720.715 879.826 721.085 879.625 721.487 879.223C721.889 878.8 722.344 878.165 722.852 877.319C723.381 876.451 723.984 875.362 724.661 874.05C725.359 872.738 726.163 871.172 727.073 869.353L727.39 868.686L728.691 869.67L728.374 870.336C727.126 872.833 726.057 874.896 725.168 876.525C724.301 878.155 723.518 879.456 722.82 880.429C722.122 881.381 721.455 882.048 720.82 882.429C720.207 882.81 719.519 883 718.757 883C718.313 883 717.879 882.937 717.456 882.81C717.033 882.683 716.663 882.46 716.345 882.143C716.028 881.826 715.774 881.403 715.583 880.874C715.393 880.323 715.298 879.625 715.298 878.779C715.298 877.509 715.382 876.081 715.552 874.494C715.721 872.907 715.911 871.32 716.123 869.733C716.335 868.146 716.525 866.655 716.694 865.258C716.864 863.841 716.948 862.688 716.948 861.799C716.948 861.016 716.779 860.392 716.44 859.926C716.102 859.44 715.594 859.196 714.917 859.196C714.24 859.196 713.531 859.461 712.791 859.99C712.071 860.519 711.362 861.206 710.664 862.053C709.987 862.878 709.342 863.809 708.728 864.846C708.136 865.882 707.617 866.909 707.173 867.924C707.173 870.146 707.152 872.093 707.109 873.764C707.067 875.415 707.004 876.811 706.919 877.954C706.855 879.096 706.76 880.006 706.633 880.683C706.506 881.339 706.369 881.783 706.221 882.016C706.115 882.164 705.935 882.302 705.681 882.429C705.427 882.556 705.142 882.661 704.824 882.746C704.528 882.831 704.232 882.894 703.936 882.937C703.66 882.979 703.449 883 703.301 883C702.962 883 702.666 882.905 702.412 882.714C702.179 882.503 702.063 882.101 702.063 881.508C702.063 881.233 702.084 880.863 702.126 880.397C702.19 879.932 702.264 879.414 702.349 878.842C702.433 878.271 702.528 877.657 702.634 877.001C702.74 876.346 702.846 875.679 702.952 875.002C702.973 874.367 702.994 873.658 703.015 872.875C703.036 872.093 703.057 871.32 703.079 870.559C703.1 869.776 703.11 869.035 703.11 868.337C703.132 867.618 703.142 867.004 703.142 866.496C703.142 865.417 703.11 864.433 703.047 863.544C702.983 862.656 702.856 861.894 702.666 861.259C702.497 860.625 702.253 860.138 701.936 859.799C701.619 859.44 701.206 859.26 700.698 859.26ZM746.655 875.129C746.655 876.335 746.761 877.351 746.973 878.176C747.184 879.001 747.555 879.414 748.083 879.414C748.401 879.414 748.739 879.265 749.099 878.969C749.48 878.652 749.914 878.144 750.4 877.446C750.887 876.748 751.437 875.848 752.051 874.748C752.686 873.627 753.405 872.262 754.209 870.654L755.161 868.686L756.462 869.67L755.51 871.638C754.622 873.415 753.786 875.013 753.003 876.43C752.241 877.827 751.511 879.012 750.813 879.985C750.115 880.958 749.427 881.709 748.75 882.238C748.094 882.746 747.438 883 746.782 883C746.084 883 745.492 882.81 745.005 882.429C744.539 882.048 744.148 881.529 743.831 880.874C743.513 880.196 743.27 879.424 743.101 878.557C742.931 877.668 742.815 876.726 742.751 875.732C742.244 876.748 741.683 877.7 741.069 878.588C740.456 879.456 739.81 880.218 739.133 880.874C738.477 881.529 737.79 882.048 737.07 882.429C736.351 882.81 735.632 883 734.912 883C733.854 883 732.828 882.778 731.833 882.333C730.839 881.889 729.95 881.212 729.167 880.302C728.406 879.392 727.792 878.25 727.327 876.875C726.861 875.478 726.628 873.838 726.628 871.955C726.628 869.755 726.914 867.744 727.485 865.925C728.057 864.084 728.829 862.508 729.802 861.196C730.776 859.863 731.897 858.837 733.167 858.117C734.436 857.377 735.769 857.006 737.166 857.006C738.012 857.006 738.795 857.197 739.514 857.578C740.234 857.958 740.858 858.424 741.387 858.974C741.937 859.503 742.392 860.074 742.751 860.688C743.111 861.28 743.354 861.788 743.481 862.211L743.862 859.133C743.905 858.731 744.095 858.392 744.434 858.117C744.793 857.842 745.185 857.631 745.608 857.482C746.031 857.313 746.444 857.197 746.846 857.133C747.248 857.049 747.533 857.006 747.703 857.006C747.957 857.006 748.126 857.049 748.21 857.133C748.295 857.218 748.337 857.387 748.337 857.641C748.337 857.958 748.242 858.604 748.052 859.577C747.882 860.529 747.692 861.757 747.48 863.259C747.29 864.74 747.1 866.486 746.909 868.496C746.74 870.506 746.655 872.717 746.655 875.129ZM743.164 866.75C743.164 865.777 743.016 864.825 742.72 863.894C742.424 862.941 742.021 862.106 741.514 861.386C741.006 860.646 740.413 860.053 739.736 859.609C739.08 859.165 738.382 858.942 737.642 858.942C736.732 858.942 735.875 859.207 735.071 859.736C734.288 860.244 733.6 860.974 733.008 861.926C732.437 862.857 731.982 863.989 731.643 865.322C731.305 866.634 731.135 868.083 731.135 869.67C731.135 872.844 731.632 875.266 732.627 876.938C733.621 878.588 734.944 879.414 736.594 879.414C737.314 879.414 738.054 879.128 738.816 878.557C739.599 877.964 740.308 877.128 740.942 876.049C741.598 874.949 742.127 873.616 742.529 872.05C742.952 870.485 743.164 868.718 743.164 866.75ZM755.034 872.59C755.034 870.347 755.119 868.094 755.288 865.83C755.457 863.566 755.68 861.27 755.955 858.942H753.066L753.416 857.006H756.208C756.505 854.848 756.801 852.69 757.097 850.532C757.415 848.352 757.7 846.173 757.954 843.994H761.191C761.149 844.459 761.086 845.136 761.001 846.025C760.938 846.892 760.853 847.908 760.747 849.072C760.662 850.214 760.578 851.473 760.493 852.849C760.409 854.203 760.324 855.589 760.239 857.006H766.396L766.079 858.942H760.112C760.028 860.148 759.954 861.333 759.89 862.497C759.827 863.661 759.763 864.772 759.7 865.83C759.657 866.866 759.626 867.829 759.604 868.718C759.583 869.585 759.573 870.336 759.573 870.971C759.573 872.579 759.615 873.923 759.7 875.002C759.806 876.081 759.954 876.949 760.144 877.604C760.356 878.26 760.61 878.726 760.906 879.001C761.223 879.276 761.583 879.414 761.985 879.414C762.514 879.414 763.096 879.149 763.73 878.62C764.386 878.07 765.063 877.34 765.762 876.43C766.46 875.52 767.169 874.462 767.888 873.256C768.608 872.029 769.306 870.728 769.983 869.353L770.3 868.686L771.602 869.67L771.284 870.336C770.311 872.304 769.338 874.071 768.364 875.637C767.412 877.202 766.471 878.535 765.54 879.636C764.609 880.715 763.699 881.551 762.81 882.143C761.921 882.714 761.064 883 760.239 883C759.414 883 758.674 882.81 758.018 882.429C757.383 882.048 756.843 881.445 756.399 880.62C755.955 879.773 755.616 878.694 755.383 877.382C755.151 876.07 755.034 874.473 755.034 872.59ZM771.951 869.035L771.633 869.67L771.316 870.336L770.015 869.353L770.332 868.686C770.861 867.607 771.295 866.528 771.633 865.449C771.993 864.348 772.279 863.322 772.49 862.37C772.723 861.418 772.913 860.582 773.062 859.863C773.21 859.143 773.358 858.625 773.506 858.308C773.633 858.054 773.813 857.853 774.045 857.705C774.299 857.535 774.553 857.398 774.807 857.292C775.082 857.186 775.336 857.112 775.569 857.07C775.823 857.028 776.003 857.006 776.108 857.006C776.574 857.006 776.881 857.102 777.029 857.292C777.198 857.482 777.283 857.821 777.283 858.308C777.283 858.54 777.23 859.122 777.124 860.053C777.039 860.963 776.934 862.116 776.807 863.513C776.701 864.888 776.595 866.443 776.489 868.178C776.405 869.892 776.362 871.669 776.362 873.51C776.362 874.843 776.426 875.901 776.553 876.684C776.68 877.446 776.838 878.017 777.029 878.398C777.24 878.779 777.463 879.022 777.695 879.128C777.949 879.234 778.203 879.287 778.457 879.287C778.796 879.287 779.176 879.139 779.6 878.842C780.023 878.546 780.52 878.028 781.091 877.287C781.663 876.525 782.319 875.51 783.059 874.24C783.8 872.95 784.667 871.32 785.662 869.353L786.011 868.686L787.312 869.67L786.963 870.336C786.159 871.902 785.355 873.447 784.551 874.97C783.768 876.494 782.964 877.848 782.139 879.033C781.335 880.218 780.52 881.18 779.695 881.921C778.87 882.64 778.044 883 777.219 883C776.352 883 775.601 882.831 774.966 882.492C774.352 882.132 773.834 881.551 773.411 880.747C773.009 879.943 772.702 878.885 772.49 877.573C772.3 876.24 772.205 874.6 772.205 872.653C772.205 872.103 772.205 871.532 772.205 870.939C772.205 870.326 772.226 869.691 772.268 869.035H771.951ZM778.457 850.5C778.457 851.241 778.203 851.865 777.695 852.373C777.209 852.859 776.595 853.103 775.854 853.103C775.135 853.103 774.521 852.859 774.014 852.373C773.506 851.865 773.252 851.241 773.252 850.5C773.252 849.781 773.506 849.167 774.014 848.659C774.521 848.151 775.135 847.897 775.854 847.897C776.595 847.897 777.209 848.151 777.695 848.659C778.203 849.167 778.457 849.781 778.457 850.5ZM796.738 864.877C796.992 864.475 797.204 863.978 797.373 863.386C797.563 862.793 797.659 862.201 797.659 861.608C797.659 860.889 797.479 860.265 797.119 859.736C796.759 859.207 796.114 858.942 795.183 858.942C794.569 858.942 793.945 859.165 793.311 859.609C792.676 860.053 792.083 860.72 791.533 861.608C791.004 862.497 790.57 863.618 790.232 864.973C789.893 866.327 789.724 867.914 789.724 869.733C789.724 871.172 789.872 872.484 790.168 873.669C790.465 874.854 790.898 875.869 791.47 876.716C792.041 877.562 792.729 878.229 793.533 878.715C794.358 879.181 795.278 879.414 796.294 879.414C797.035 879.414 797.786 879.223 798.547 878.842C799.33 878.461 800.113 877.869 800.896 877.065C801.7 876.261 802.525 875.224 803.372 873.955C804.218 872.664 805.085 871.13 805.974 869.353L806.292 868.686L807.593 869.67L807.275 870.336C806.133 872.6 804.99 874.536 803.848 876.145C802.726 877.753 801.615 879.064 800.515 880.08C799.415 881.096 798.336 881.836 797.278 882.302C796.241 882.767 795.236 883 794.263 883C792.887 883 791.66 882.714 790.581 882.143C789.502 881.572 788.592 880.799 787.852 879.826C787.111 878.832 786.54 877.689 786.138 876.398C785.757 875.087 785.566 873.711 785.566 872.272C785.566 869.987 785.873 867.914 786.487 866.052C787.122 864.169 787.936 862.561 788.931 861.228C789.925 859.895 791.047 858.858 792.295 858.117C793.543 857.377 794.802 857.006 796.072 857.006C797.045 857.006 797.86 857.144 798.516 857.419C799.172 857.694 799.701 858.043 800.103 858.466C800.505 858.889 800.79 859.344 800.959 859.831C801.129 860.318 801.213 860.783 801.213 861.228C801.213 861.672 801.118 862.137 800.928 862.624C800.737 863.09 800.452 863.534 800.071 863.957C799.711 864.359 799.277 864.729 798.77 865.068C798.262 865.385 797.69 865.618 797.056 865.766L796.738 864.877Z" fill="black"/>
</svg>
